<svg width="21" height="20" viewBox="0 0 21 20" fill="none" xmlns="http://www.w3.org/2000/svg">
<path fill-rule="evenodd" clip-rule="evenodd" d="M4.56662 1.87384C3.86393 1.79531 3.13594 1.79531 2.43325 1.87384C2.4202 1.8753 2.40729 1.88121 2.39668 1.89167C2.38631 1.90189 2.38227 1.91222 2.38124 1.92098C2.2974 2.63786 2.2974 3.36206 2.38124 4.07893C2.38227 4.0877 2.38631 4.09802 2.39668 4.10824C2.40729 4.1187 2.4202 4.12461 2.43325 4.12607C3.13594 4.2046 3.86393 4.2046 4.56662 4.12607C4.57967 4.12461 4.59258 4.1187 4.60319 4.10824C4.61356 4.09802 4.6176 4.0877 4.61863 4.07893C4.70247 3.36206 4.70247 2.63786 4.61863 1.92098C4.6176 1.91222 4.61356 1.90189 4.60319 1.89167C4.59258 1.88121 4.57967 1.8753 4.56662 1.87384ZM2.26664 0.383124C3.08006 0.292214 3.91981 0.292214 4.73323 0.383124C5.44555 0.462737 6.02384 1.02317 6.10847 1.74673C6.20586 2.57938 6.20586 3.42053 6.10847 4.25318C6.02384 4.97674 5.44555 5.53717 4.73323 5.61679C3.91981 5.7077 3.08006 5.7077 2.26664 5.61679C1.55432 5.53717 0.976025 4.97674 0.891398 4.25318C0.794013 3.42053 0.794013 2.57938 0.891398 1.74673C0.976025 1.02317 1.55432 0.462737 2.26664 0.383124Z" fill="#FF5500"/>
<path fill-rule="evenodd" clip-rule="evenodd" d="M11.5666 1.87384C10.8639 1.79531 10.1359 1.79531 9.43325 1.87384C9.4202 1.8753 9.40729 1.88121 9.39668 1.89167C9.38631 1.90189 9.38227 1.91222 9.38124 1.92098C9.2974 2.63786 9.2974 3.36206 9.38124 4.07893C9.38227 4.0877 9.38631 4.09802 9.39668 4.10824C9.40729 4.1187 9.4202 4.12461 9.43325 4.12607C10.1359 4.2046 10.8639 4.2046 11.5666 4.12607C11.5797 4.12461 11.5926 4.1187 11.6032 4.10824C11.6136 4.09802 11.6176 4.0877 11.6186 4.07893C11.7025 3.36206 11.7025 2.63786 11.6186 1.92098C11.6176 1.91222 11.6136 1.90189 11.6032 1.89167C11.5926 1.88121 11.5797 1.8753 11.5666 1.87384ZM9.26664 0.383124C10.0801 0.292214 10.9198 0.292214 11.7332 0.383124C12.4456 0.462737 13.0238 1.02317 13.1085 1.74673C13.2059 2.57938 13.2059 3.42053 13.1085 4.25318C13.0238 4.97674 12.4456 5.53717 11.7332 5.61679C10.9198 5.7077 10.0801 5.7077 9.26664 5.61679C8.55432 5.53717 7.97603 4.97674 7.8914 4.25318C7.79401 3.42053 7.79401 2.57938 7.8914 1.74673C7.97603 1.02317 8.55432 0.462737 9.26664 0.383124Z" fill="#FF5500"/>
<path fill-rule="evenodd" clip-rule="evenodd" d="M18.5666 1.87384C17.8639 1.79531 17.1359 1.79531 16.4333 1.87384C16.4202 1.8753 16.4073 1.88121 16.3967 1.89167C16.3863 1.90189 16.3823 1.91222 16.3812 1.92098C16.2974 2.63786 16.2974 3.36206 16.3812 4.07893C16.3823 4.0877 16.3863 4.09802 16.3967 4.10824C16.4073 4.1187 16.4202 4.12461 16.4333 4.12607C17.1359 4.2046 17.8639 4.2046 18.5666 4.12607C18.5797 4.12461 18.5926 4.1187 18.6032 4.10824C18.6136 4.09802 18.6176 4.0877 18.6186 4.07893C18.7025 3.36206 18.7025 2.63786 18.6186 1.92098C18.6176 1.91222 18.6136 1.90189 18.6032 1.89167C18.5926 1.88121 18.5797 1.8753 18.5666 1.87384ZM16.2666 0.383124C17.0801 0.292214 17.9198 0.292214 18.7332 0.383124C19.4456 0.462737 20.0238 1.02317 20.1085 1.74673C20.2059 2.57938 20.2059 3.42053 20.1085 4.25318C20.0238 4.97674 19.4456 5.53717 18.7332 5.61679C17.9198 5.7077 17.0801 5.7077 16.2666 5.61679C15.5543 5.53717 14.976 4.97674 14.8914 4.25318C14.794 3.42053 14.794 2.57938 14.8914 1.74673C14.976 1.02317 15.5543 0.462737 16.2666 0.383124Z" fill="#FF5500"/>
<path fill-rule="evenodd" clip-rule="evenodd" d="M4.56662 8.87384C3.86393 8.79531 3.13594 8.79531 2.43325 8.87384C2.4202 8.8753 2.40729 8.88121 2.39668 8.89167C2.38631 8.90189 2.38227 8.91222 2.38124 8.92098C2.2974 9.63785 2.2974 10.3621 2.38124 11.0789C2.38227 11.0877 2.38631 11.098 2.39668 11.1082C2.40729 11.1187 2.4202 11.1246 2.43325 11.1261C3.13594 11.2046 3.86393 11.2046 4.56662 11.1261C4.57967 11.1246 4.59258 11.1187 4.60319 11.1082C4.61356 11.098 4.6176 11.0877 4.61863 11.0789C4.70247 10.3621 4.70247 9.63785 4.61863 8.92098C4.6176 8.91222 4.61356 8.90189 4.60319 8.89167C4.59258 8.88121 4.57967 8.8753 4.56662 8.87384ZM2.26664 7.38312C3.08006 7.29221 3.91981 7.29221 4.73323 7.38312C5.44555 7.46274 6.02384 8.02317 6.10847 8.74673C6.20586 9.57938 6.20586 10.4205 6.10847 11.2532C6.02384 11.9767 5.44555 12.5372 4.73323 12.6168C3.91981 12.7077 3.08006 12.7077 2.26664 12.6168C1.55432 12.5372 0.976025 11.9767 0.891398 11.2532C0.794013 10.4205 0.794013 9.57938 0.891398 8.74673C0.976025 8.02317 1.55432 7.46274 2.26664 7.38312Z" fill="#FF5500"/>
<path fill-rule="evenodd" clip-rule="evenodd" d="M11.5666 8.87384C10.8639 8.79531 10.1359 8.79531 9.43325 8.87384C9.4202 8.8753 9.40729 8.88121 9.39668 8.89167C9.38631 8.90189 9.38227 8.91222 9.38124 8.92098C9.2974 9.63785 9.2974 10.3621 9.38124 11.0789C9.38227 11.0877 9.38631 11.098 9.39668 11.1082C9.40729 11.1187 9.4202 11.1246 9.43325 11.1261C10.1359 11.2046 10.8639 11.2046 11.5666 11.1261C11.5797 11.1246 11.5926 11.1187 11.6032 11.1082C11.6136 11.098 11.6176 11.0877 11.6186 11.0789C11.7025 10.3621 11.7025 9.63785 11.6186 8.92098C11.6176 8.91222 11.6136 8.90189 11.6032 8.89167C11.5926 8.88121 11.5797 8.8753 11.5666 8.87384ZM9.26664 7.38312C10.0801 7.29221 10.9198 7.29221 11.7332 7.38312C12.4456 7.46274 13.0238 8.02317 13.1085 8.74673C13.2059 9.57938 13.2059 10.4205 13.1085 11.2532C13.0238 11.9767 12.4456 12.5372 11.7332 12.6168C10.9198 12.7077 10.0801 12.7077 9.26664 12.6168C8.55432 12.5372 7.97603 11.9767 7.8914 11.2532C7.79401 10.4205 7.79401 9.57938 7.8914 8.74673C7.97603 8.02317 8.55432 7.46274 9.26664 7.38312Z" fill="#FF5500"/>
<path fill-rule="evenodd" clip-rule="evenodd" d="M18.5666 8.87384C17.8639 8.79531 17.1359 8.79531 16.4333 8.87384C16.4202 8.8753 16.4073 8.88121 16.3967 8.89167C16.3863 8.90189 16.3823 8.91222 16.3812 8.92098C16.2974 9.63785 16.2974 10.3621 16.3812 11.0789C16.3823 11.0877 16.3863 11.098 16.3967 11.1082C16.4073 11.1187 16.4202 11.1246 16.4333 11.1261C17.1359 11.2046 17.8639 11.2046 18.5666 11.1261C18.5797 11.1246 18.5926 11.1187 18.6032 11.1082C18.6136 11.098 18.6176 11.0877 18.6186 11.0789C18.7025 10.3621 18.7025 9.63785 18.6186 8.92098C18.6176 8.91222 18.6136 8.90189 18.6032 8.89167C18.5926 8.88121 18.5797 8.8753 18.5666 8.87384ZM16.2666 7.38312C17.0801 7.29221 17.9198 7.29221 18.7332 7.38312C19.4456 7.46274 20.0238 8.02317 20.1085 8.74673C20.2059 9.57938 20.2059 10.4205 20.1085 11.2532C20.0238 11.9767 19.4456 12.5372 18.7332 12.6168C17.9198 12.7077 17.0801 12.7077 16.2666 12.6168C15.5543 12.5372 14.976 11.9767 14.8914 11.2532C14.794 10.4205 14.794 9.57938 14.8914 8.74673C14.976 8.02317 15.5543 7.46274 16.2666 7.38312Z" fill="#FF5500"/>
<path fill-rule="evenodd" clip-rule="evenodd" d="M4.56662 15.8738C3.86393 15.7953 3.13594 15.7953 2.43325 15.8738C2.4202 15.8753 2.40729 15.8812 2.39668 15.8917C2.38631 15.9019 2.38227 15.9122 2.38124 15.921C2.2974 16.6379 2.2974 17.3621 2.38124 18.0789C2.38227 18.0877 2.38631 18.098 2.39668 18.1082C2.40729 18.1187 2.4202 18.1246 2.43325 18.1261C3.13594 18.2046 3.86393 18.2046 4.56662 18.1261C4.57967 18.1246 4.59258 18.1187 4.60319 18.1082C4.61356 18.098 4.6176 18.0877 4.61863 18.0789C4.70247 17.3621 4.70247 16.6379 4.61863 15.921C4.6176 15.9122 4.61356 15.9019 4.60319 15.8917C4.59258 15.8812 4.57967 15.8753 4.56662 15.8738ZM2.26664 14.3831C3.08006 14.2922 3.91981 14.2922 4.73323 14.3831C5.44555 14.4627 6.02384 15.0232 6.10847 15.7467C6.20586 16.5794 6.20586 17.4205 6.10847 18.2532C6.02384 18.9767 5.44555 19.5372 4.73323 19.6168C3.91981 19.7077 3.08006 19.7077 2.26664 19.6168C1.55432 19.5372 0.976025 18.9767 0.891398 18.2532C0.794013 17.4205 0.794013 16.5794 0.891398 15.7467C0.976025 15.0232 1.55432 14.4627 2.26664 14.3831Z" fill="#FF5500"/>
<path fill-rule="evenodd" clip-rule="evenodd" d="M11.5666 15.8738C10.8639 15.7953 10.1359 15.7953 9.43325 15.8738C9.4202 15.8753 9.40729 15.8812 9.39668 15.8917C9.38631 15.9019 9.38227 15.9122 9.38124 15.921C9.2974 16.6379 9.2974 17.3621 9.38124 18.0789C9.38227 18.0877 9.38631 18.098 9.39668 18.1082C9.40729 18.1187 9.4202 18.1246 9.43325 18.1261C10.1359 18.2046 10.8639 18.2046 11.5666 18.1261C11.5797 18.1246 11.5926 18.1187 11.6032 18.1082C11.6136 18.098 11.6176 18.0877 11.6186 18.0789C11.7025 17.3621 11.7025 16.6379 11.6186 15.921C11.6176 15.9122 11.6136 15.9019 11.6032 15.8917C11.5926 15.8812 11.5797 15.8753 11.5666 15.8738ZM9.26664 14.3831C10.0801 14.2922 10.9198 14.2922 11.7332 14.3831C12.4456 14.4627 13.0238 15.0232 13.1085 15.7467C13.2059 16.5794 13.2059 17.4205 13.1085 18.2532C13.0238 18.9767 12.4456 19.5372 11.7332 19.6168C10.9198 19.7077 10.0801 19.7077 9.26664 19.6168C8.55432 19.5372 7.97603 18.9767 7.8914 18.2532C7.79401 17.4205 7.79401 16.5794 7.8914 15.7467C7.97603 15.0232 8.55432 14.4627 9.26664 14.3831Z" fill="#FF5500"/>
<path fill-rule="evenodd" clip-rule="evenodd" d="M18.5666 15.8738C17.8639 15.7953 17.1359 15.7953 16.4333 15.8738C16.4202 15.8753 16.4073 15.8812 16.3967 15.8917C16.3863 15.9019 16.3823 15.9122 16.3812 15.921C16.2974 16.6379 16.2974 17.3621 16.3812 18.0789C16.3823 18.0877 16.3863 18.098 16.3967 18.1082C16.4073 18.1187 16.4202 18.1246 16.4333 18.1261C17.1359 18.2046 17.8639 18.2046 18.5666 18.1261C18.5797 18.1246 18.5926 18.1187 18.6032 18.1082C18.6136 18.098 18.6176 18.0877 18.6186 18.0789C18.7025 17.3621 18.7025 16.6379 18.6186 15.921C18.6176 15.9122 18.6136 15.9019 18.6032 15.8917C18.5926 15.8812 18.5797 15.8753 18.5666 15.8738ZM16.2666 14.3831C17.0801 14.2922 17.9198 14.2922 18.7332 14.3831C19.4456 14.4627 20.0238 15.0232 20.1085 15.7467C20.2059 16.5794 20.2059 17.4205 20.1085 18.2532C20.0238 18.9767 19.4456 19.5372 18.7332 19.6168C17.9198 19.7077 17.0801 19.7077 16.2666 19.6168C15.5543 19.5372 14.976 18.9767 14.8914 18.2532C14.794 17.4205 14.794 16.5794 14.8914 15.7467C14.976 15.0232 15.5543 14.4627 16.2666 14.3831Z" fill="#FF5500"/>
</svg>
