<svg width="21" height="20" viewBox="0 0 21 20" fill="none" xmlns="http://www.w3.org/2000/svg">
<path d="M4.14 15L3.43 15.71C3.24375 15.8974 3.13921 16.1508 3.13921 16.415C3.13921 16.6792 3.24375 16.9326 3.43 17.12C3.61736 17.3063 3.87081 17.4108 4.135 17.4108C4.39919 17.4108 4.65264 17.3063 4.84 17.12L5.55 16.41C5.71383 16.2187 5.79943 15.9726 5.78971 15.7209C5.77999 15.4693 5.67566 15.2305 5.49756 15.0524C5.31947 14.8743 5.08073 14.77 4.82905 14.7603C4.57738 14.7506 4.3313 14.8362 4.14 15ZM3.5 10C3.5 9.73478 3.39464 9.48043 3.20711 9.29289C3.01957 9.10536 2.76522 9 2.5 9H1.5C1.23478 9 0.98043 9.10536 0.792893 9.29289C0.605357 9.48043 0.5 9.73478 0.5 10C0.5 10.2652 0.605357 10.5196 0.792893 10.7071C0.98043 10.8946 1.23478 11 1.5 11H2.5C2.76522 11 3.01957 10.8946 3.20711 10.7071C3.39464 10.5196 3.5 10.2652 3.5 10ZM10.5 3C10.7652 3 11.0196 2.89464 11.2071 2.70711C11.3946 2.51957 11.5 2.26522 11.5 2V1C11.5 0.734784 11.3946 0.48043 11.2071 0.292893C11.0196 0.105357 10.7652 0 10.5 0C10.2348 0 9.98043 0.105357 9.79289 0.292893C9.60536 0.48043 9.5 0.734784 9.5 1V2C9.5 2.26522 9.60536 2.51957 9.79289 2.70711C9.98043 2.89464 10.2348 3 10.5 3ZM4.14 5.05C4.32626 5.23474 4.57766 5.3389 4.84 5.34C4.97161 5.34076 5.10207 5.31554 5.22391 5.26577C5.34574 5.21601 5.45656 5.14268 5.55 5.05C5.73625 4.86264 5.84079 4.60919 5.84079 4.345C5.84079 4.08081 5.73625 3.82736 5.55 3.64L4.84 2.93C4.6487 2.76617 4.40262 2.68057 4.15095 2.69029C3.89927 2.70001 3.66053 2.80434 3.48244 2.98244C3.30434 3.16053 3.20001 3.39927 3.19029 3.65095C3.18057 3.90262 3.26617 4.1487 3.43 4.34L4.14 5.05ZM16.14 5.34C16.4023 5.3389 16.6537 5.23474 16.84 5.05L17.55 4.34C17.6547 4.25035 17.7397 4.14004 17.7997 4.01597C17.8597 3.89191 17.8935 3.75677 17.8988 3.61905C17.9041 3.48133 17.8809 3.344 17.8306 3.21568C17.7804 3.08735 17.7041 2.9708 17.6066 2.87335C17.5092 2.77589 17.3926 2.69964 17.2643 2.64936C17.136 2.59909 16.9987 2.57588 16.8609 2.5812C16.7232 2.58652 16.5881 2.62025 16.464 2.68027C16.34 2.7403 16.2296 2.82532 16.14 2.93L15.5 3.64C15.3137 3.82736 15.2092 4.08081 15.2092 4.345C15.2092 4.60919 15.3137 4.86264 15.5 5.05C15.6763 5.22536 15.9116 5.32875 16.16 5.34H16.14ZM19.5 9H18.5C18.2348 9 17.9804 9.10536 17.7929 9.29289C17.6054 9.48043 17.5 9.73478 17.5 10C17.5 10.2652 17.6054 10.5196 17.7929 10.7071C17.9804 10.8946 18.2348 11 18.5 11H19.5C19.7652 11 20.0196 10.8946 20.2071 10.7071C20.3946 10.5196 20.5 10.2652 20.5 10C20.5 9.73478 20.3946 9.48043 20.2071 9.29289C20.0196 9.10536 19.7652 9 19.5 9ZM10.5 17C10.2348 17 9.98043 17.1054 9.79289 17.2929C9.60536 17.4804 9.5 17.7348 9.5 18V19C9.5 19.2652 9.60536 19.5196 9.79289 19.7071C9.98043 19.8946 10.2348 20 10.5 20C10.7652 20 11.0196 19.8946 11.2071 19.7071C11.3946 19.5196 11.5 19.2652 11.5 19V18C11.5 17.7348 11.3946 17.4804 11.2071 17.2929C11.0196 17.1054 10.7652 17 10.5 17ZM16.86 15C16.67 14.8943 16.4508 14.8534 16.2355 14.8835C16.0202 14.9136 15.8205 15.0131 15.6668 15.1668C15.5131 15.3205 15.4136 15.5202 15.3835 15.7355C15.3534 15.9508 15.3943 16.17 15.5 16.36L16.21 17.07C16.3974 17.2563 16.6508 17.3608 16.915 17.3608C17.1792 17.3608 17.4326 17.2563 17.62 17.07C17.8063 16.8826 17.9108 16.6292 17.9108 16.365C17.9108 16.1008 17.8063 15.8474 17.62 15.66L16.86 15ZM10.5 4.5C9.4122 4.5 8.34883 4.82257 7.44436 5.42692C6.53989 6.03126 5.83494 6.89025 5.41866 7.89524C5.00238 8.90023 4.89346 10.0061 5.10568 11.073C5.3179 12.1399 5.84172 13.1199 6.61091 13.8891C7.3801 14.6583 8.36011 15.1821 9.427 15.3943C10.4939 15.6065 11.5998 15.4976 12.6048 15.0813C13.6098 14.6651 14.4687 13.9601 15.0731 13.0556C15.6774 12.1512 16 11.0878 16 10C15.9974 8.54212 15.417 7.14471 14.3862 6.11383C13.3553 5.08295 11.9579 4.50264 10.5 4.5ZM10.5 13.5C9.80777 13.5 9.13108 13.2947 8.5555 12.9101C7.97993 12.5256 7.53133 11.9789 7.26642 11.3394C7.00151 10.6999 6.9322 9.99612 7.06725 9.31718C7.2023 8.63825 7.53564 8.01461 8.02513 7.52513C8.51461 7.03564 9.13825 6.7023 9.81718 6.56725C10.4961 6.4322 11.1999 6.50151 11.8394 6.76642C12.4789 7.03133 13.0256 7.47993 13.4101 8.0555C13.7947 8.63108 14 9.30777 14 10C14 10.9283 13.6313 11.8185 12.9749 12.4749C12.3185 13.1313 11.4283 13.5 10.5 13.5Z" fill="#FF5500"/>
</svg>
