<svg width="19" height="18" viewBox="0 0 19 18" fill="none" xmlns="http://www.w3.org/2000/svg">
<path fill-rule="evenodd" clip-rule="evenodd" d="M16.3073 1.95714C14.9732 1.54554 13.5262 1.54554 12.1921 1.95714C11.7406 6.64146 11.7407 11.3583 12.1921 16.0427C13.5262 16.4543 14.9732 16.4543 16.3073 16.0427C16.7588 11.3583 16.7588 6.64146 16.3073 1.95714ZM17.7903 1.70865C18.2645 6.55792 18.2645 11.4419 17.7903 16.2912C17.738 16.8257 17.3717 17.275 16.8659 17.4392C15.1728 17.9888 13.3266 17.9888 11.6335 17.4392C11.1278 17.275 10.7615 16.8257 10.7092 16.2912C10.235 11.4419 10.235 6.55792 10.7092 1.70865C10.7615 1.1741 11.1278 0.724832 11.6335 0.560647C13.3266 0.0110346 15.1728 0.0110348 16.8659 0.560648C17.3717 0.724832 17.738 1.1741 17.7903 1.70865Z" fill="#FF5500"/>
<path fill-rule="evenodd" clip-rule="evenodd" d="M6.80733 1.95714C5.47324 1.54554 4.02621 1.54554 2.69212 1.95714C2.24065 6.64146 2.24065 11.3583 2.69212 16.0427C4.02621 16.4543 5.47324 16.4543 6.80733 16.0427C7.2588 11.3583 7.2588 6.64146 6.80733 1.95714ZM8.29026 1.70865C8.76449 6.55792 8.76449 11.4419 8.29026 16.2912C8.23798 16.8257 7.87169 17.275 7.36592 17.4392C5.67283 17.9888 3.82662 17.9888 2.13353 17.4392C1.62775 17.275 1.26146 16.8257 1.20919 16.2912C0.734958 11.4419 0.734958 6.55792 1.20919 1.70865C1.26146 1.1741 1.62776 0.724832 2.13353 0.560647C3.82662 0.0110342 5.67283 0.0110344 7.36592 0.560647C7.8717 0.724832 8.23799 1.1741 8.29026 1.70865Z" fill="#FF5500"/>
</svg>
