<svg width="19" height="18" viewBox="0 0 19 18" fill="none" xmlns="http://www.w3.org/2000/svg">
<path fill-rule="evenodd" clip-rule="evenodd" d="M1.29081 0.790812C1.79716 0.284463 2.48392 0 3.2 0H5.9C6.39706 0 6.8 0.402944 6.8 0.9C6.8 1.39706 6.39706 1.8 5.9 1.8H3.2C2.9613 1.8 2.73239 1.89482 2.5636 2.0636C2.39482 2.23239 2.3 2.4613 2.3 2.7V5.4C2.3 5.89706 1.89706 6.3 1.4 6.3C0.902944 6.3 0.5 5.89706 0.5 5.4V2.7C0.5 1.98392 0.784463 1.29716 1.29081 0.790812ZM12.2 0.9C12.2 0.402944 12.6029 0 13.1 0H15.8C16.5161 0 17.2028 0.284463 17.7092 0.790812C18.2155 1.29716 18.5 1.98392 18.5 2.7V5.4C18.5 5.89706 18.0971 6.3 17.6 6.3C17.1029 6.3 16.7 5.89706 16.7 5.4V2.7C16.7 2.46131 16.6052 2.23239 16.4364 2.0636C16.2676 1.89482 16.0387 1.8 15.8 1.8H13.1C12.6029 1.8 12.2 1.39706 12.2 0.9ZM1.4 11.7C1.89706 11.7 2.3 12.1029 2.3 12.6V15.3C2.3 15.5387 2.39482 15.7676 2.5636 15.9364C2.73239 16.1052 2.96131 16.2 3.2 16.2H5.9C6.39706 16.2 6.8 16.6029 6.8 17.1C6.8 17.5971 6.39706 18 5.9 18H3.2C2.48392 18 1.79716 17.7155 1.29081 17.2092C0.784463 16.7028 0.5 16.0161 0.5 15.3V12.6C0.5 12.1029 0.902944 11.7 1.4 11.7ZM17.6 11.7C18.0971 11.7 18.5 12.1029 18.5 12.6V15.3C18.5 16.0161 18.2155 16.7028 17.7092 17.2092C17.2028 17.7155 16.5161 18 15.8 18H13.1C12.6029 18 12.2 17.5971 12.2 17.1C12.2 16.6029 12.6029 16.2 13.1 16.2H15.8C16.0387 16.2 16.2676 16.1052 16.4364 15.9364C16.6052 15.7676 16.7 15.5387 16.7 15.3V12.6C16.7 12.1029 17.1029 11.7 17.6 11.7Z" fill="#FF5500"/>
</svg>
