<svg width="19" height="14" viewBox="0 0 19 14" fill="none" xmlns="http://www.w3.org/2000/svg">
<path fill-rule="evenodd" clip-rule="evenodd" d="M0.960145 11.8191C0.738562 11.5893 0.686703 11.2444 0.830908 10.9596L1.53241 9.57426C3.19268 6.29544 6.55563 4.2288 10.2308 4.2288H10.5757C10.6009 3.68242 10.6334 3.1363 10.6731 2.59057L10.741 1.65993C10.7961 0.90311 11.64 0.480043 12.2795 0.888625C14.3771 2.22899 16.2007 3.95608 17.653 5.97783L18.1091 6.61277C18.297 6.87425 18.297 7.22643 18.1091 7.4879L17.653 8.12284C16.2007 10.1446 14.3771 11.8717 12.2795 13.212C11.64 13.6206 10.7961 13.1976 10.741 12.4407L10.6731 11.5101C10.6256 10.8584 10.5886 10.2061 10.5619 9.55348C8.41207 9.49142 6.26486 9.92534 4.2915 10.8361L1.81431 11.9794C1.52447 12.1132 1.18173 12.0488 0.960145 11.8191ZM3.17839 9.6978L3.66291 9.47417C6.07405 8.36135 8.71958 7.89154 11.3447 8.09316C11.727 8.12252 12.0256 8.43553 12.0369 8.81879C12.0624 9.68016 12.1065 10.5411 12.1692 11.401L12.1746 11.4755C13.8181 10.3138 15.2583 8.88546 16.4348 7.24771L16.5766 7.05034L16.4348 6.85296C15.2583 5.21522 13.8181 3.78683 12.1746 2.62517L12.1692 2.69962C12.1132 3.46723 12.0721 4.23565 12.0458 5.00445C12.032 5.40844 11.7005 5.7288 11.2962 5.7288L10.2308 5.7288C7.33352 5.7288 4.66555 7.2467 3.17839 9.6978Z" fill="#FF5500"/>
</svg>
