<svg width="19" height="14" viewBox="0 0 19 14" fill="none" xmlns="http://www.w3.org/2000/svg">
<path fill-rule="evenodd" clip-rule="evenodd" d="M18.0394 11.8073C18.261 11.5775 18.3129 11.2326 18.1687 10.9478L17.4385 9.50594C15.7783 6.22712 12.4153 4.16048 8.74011 4.16049H8.33626C8.31084 3.60714 8.27798 3.05406 8.23769 2.50138L8.16925 1.56241C8.11396 0.803891 7.26818 0.379871 6.62731 0.789374C4.5116 2.14127 2.67232 3.88321 1.2075 5.92236L0.747318 6.56298C0.559488 6.82445 0.559488 7.17664 0.747318 7.43811L1.2075 8.07873C2.67232 10.1179 4.5116 11.8598 6.62731 13.2117C7.26818 13.6212 8.11396 13.1972 8.16925 12.4387L8.2377 11.4997C8.28577 10.8402 8.32327 10.18 8.35017 9.51956C10.5223 9.45589 12.692 9.89385 14.6859 10.8141L17.1853 11.9676C17.4751 12.1014 17.8178 12.0371 18.0394 11.8073ZM15.8286 9.68942L15.3145 9.45216C12.8828 8.32986 10.2148 7.85605 7.56733 8.05939C7.18502 8.08875 6.88642 8.40175 6.87509 8.78502C6.84939 9.65419 6.80492 10.5229 6.74166 11.3907L6.73533 11.4776C5.07252 10.3039 3.6155 8.85982 2.42576 7.2036L2.2799 7.00054L2.42576 6.79749C3.6155 5.14127 5.07252 3.69718 6.73532 2.52347L6.74166 2.61043C6.79813 3.38499 6.83963 4.16037 6.86616 4.93613C6.87998 5.34012 7.21149 5.66049 7.61573 5.66049L8.74011 5.66049C11.661 5.66048 14.3487 7.20315 15.8286 9.68942Z" fill="#FF5500"/>
</svg>
